<svg xmlns="http://www.w3.org/2000/svg" xmlns:xlink="http://www.w3.org/1999/xlink" width="61.541" height="58.881" viewBox="0 0 61.541 58.881">
  <defs>
    <linearGradient id="linear-gradient" x1="0.5" x2="0.5" y2="1" gradientUnits="objectBoundingBox">
      <stop offset="0" stop-color="#ea503d"/>
      <stop offset="1" stop-color="#f7a31c"/>
    </linearGradient>
  </defs>
  <path id="Path_636" data-name="Path 636" d="M1009.595,150.323a3.584,3.584,0,0,0-2.893-2.439l-16.921-2.459-7.568-15.333a3.584,3.584,0,0,0-6.427,0l-7.567,15.333L951.3,147.884A3.583,3.583,0,0,0,949.311,154l12.245,11.935-2.891,16.853a3.583,3.583,0,0,0,5.2,3.777L979,178.606l15.135,7.957a3.583,3.583,0,0,0,5.2-3.777l-2.891-16.853L1008.687,154A3.585,3.585,0,0,0,1009.595,150.323Zm-19.5,11.792a3.584,3.584,0,0,0-1.031,3.172l1.982,11.554-10.376-5.454a3.581,3.581,0,0,0-3.336,0l-10.375,5.454,1.982-11.554a3.584,3.584,0,0,0-1.03-3.172l-8.394-8.182,11.6-1.686a3.579,3.579,0,0,0,2.7-1.959L979,139.776l5.188,10.511a3.579,3.579,0,0,0,2.7,1.959l11.6,1.686Z" transform="translate(-948.229 -128.094)" fill="url(#linear-gradient)"/>
</svg>
