<svg xmlns="http://www.w3.org/2000/svg" xmlns:xlink="http://www.w3.org/1999/xlink" width="19.155" height="15.755" viewBox="0 0 19.155 15.755">
  <defs>
    <linearGradient id="linear-gradient" x1="0.845" y1="1" x2="1" y2="-0.478" gradientUnits="objectBoundingBox">
      <stop offset="0" stop-color="#f7a31c"/>
      <stop offset="1" stop-color="#ea503d"/>
    </linearGradient>
  </defs>
  <path id="Path_648" data-name="Path 648" d="M129.16,41.319l-.1.06a1.061,1.061,0,0,0,.387,1.921,1.043,1.043,0,0,0,.778-.15,3.291,3.291,0,0,1,1.63-.455h.032a3.267,3.267,0,0,1,3.265,3.233c0,1.68-1.3,3.588-3.85,5.668a28.973,28.973,0,0,1-3.608,2.47,28.878,28.878,0,0,1-3.605-2.476c-2.556-2.08-3.853-3.986-3.853-5.664a3.261,3.261,0,0,1,6.428-.766,1.062,1.062,0,0,0,2.063-.5,5.38,5.38,0,0,0-5.2-4.091H123.5a5.382,5.382,0,0,0-5.382,5.359c0,2.34,1.557,4.8,4.63,7.312a30.375,30.375,0,0,0,4.392,2.943,1.183,1.183,0,0,0,.553.141h.006a1.228,1.228,0,0,0,.55-.136,30.415,30.415,0,0,0,4.4-2.95c3.071-2.511,4.627-4.971,4.627-7.312a5.379,5.379,0,0,0-8.111-4.6Z" transform="translate(-118.116 -40.566)" fill="url(#linear-gradient)"/>
</svg>
