<svg xmlns="http://www.w3.org/2000/svg" xmlns:xlink="http://www.w3.org/1999/xlink" width="78.384" height="78.384" viewBox="0 0 78.384 78.384">
  <defs>
    <linearGradient id="linear-gradient" y1="0.5" x2="1" y2="0.5" gradientUnits="objectBoundingBox">
      <stop offset="0" stop-color="#ea503d"/>
      <stop offset="1" stop-color="#f7a31c"/>
    </linearGradient>
    <clipPath id="clip-path">
      <rect id="Rectangle_1711" data-name="Rectangle 1711" width="64" height="64" fill="url(#linear-gradient)"/>
    </clipPath>
  </defs>
  <g id="noun_Settings_3530316" transform="matrix(0.259, 0.966, -0.966, 0.259, 61.819, 0)">
    <g id="Group_512" data-name="Group 512" clip-path="url(#clip-path)">
      <path id="Path_634" data-name="Path 634" d="M48.857,13.427l1.716,1.716a1.769,1.769,0,0,0,1.655.39l2.822-.943a2.531,2.531,0,0,1,2.91,1.03,30.7,30.7,0,0,1,3.98,9.59A2.5,2.5,0,0,1,60.61,28l-2.666,1.333a1.772,1.772,0,0,0-.894,1.447v2.43a1.772,1.772,0,0,0,.894,1.447L60.61,35.99a2.5,2.5,0,0,1,1.33,2.79,30.7,30.7,0,0,1-3.98,9.59,2.518,2.518,0,0,1-2.91,1.04l-2.822-.943a1.769,1.769,0,0,0-1.655.39l-1.716,1.716a1.769,1.769,0,0,0-.39,1.655l.943,2.822a2.518,2.518,0,0,1-1.04,2.91,30.7,30.7,0,0,1-9.59,3.98,2.5,2.5,0,0,1-2.79-1.33l-1.333-2.666a1.772,1.772,0,0,0-1.447-.894H30.78a1.772,1.772,0,0,0-1.447.894L28,60.61a2.5,2.5,0,0,1-2.79,1.33,30.7,30.7,0,0,1-9.59-3.98,2.531,2.531,0,0,1-1.03-2.91l.943-2.822a1.769,1.769,0,0,0-.39-1.655l-1.716-1.716a1.773,1.773,0,0,0-1.656-.391L8.94,49.41a2.5,2.5,0,0,1-2.9-1.04,30.46,30.46,0,0,1-3.98-9.59,2.511,2.511,0,0,1,1.32-2.79l2.666-1.333A1.772,1.772,0,0,0,6.94,33.21V30.78a1.772,1.772,0,0,0-.894-1.447L3.38,28a2.511,2.511,0,0,1-1.32-2.79,30.46,30.46,0,0,1,3.98-9.59,2.511,2.511,0,0,1,2.9-1.03l2.831.944a1.773,1.773,0,0,0,1.656-.391l1.716-1.716a1.773,1.773,0,0,0,.391-1.656L14.59,8.94a2.511,2.511,0,0,1,1.03-2.9,30.46,30.46,0,0,1,9.59-3.98A2.511,2.511,0,0,1,28,3.38l1.333,2.666a1.772,1.772,0,0,0,1.447.894h2.43a1.772,1.772,0,0,0,1.447-.894L35.99,3.38a2.511,2.511,0,0,1,2.79-1.32,30.46,30.46,0,0,1,9.59,3.98,2.5,2.5,0,0,1,1.04,2.9l-.944,2.831A1.773,1.773,0,0,0,48.857,13.427Zm-5.72,1.35,6.086,6.086a1.766,1.766,0,0,0,1.655.389l2.874-.964a1.221,1.221,0,0,1,1.417.565,23.515,23.515,0,0,1,1.093,2.632,1.213,1.213,0,0,1-.6,1.4l-2.72,1.358a1.768,1.768,0,0,0-.9,1.446V36.3a1.768,1.768,0,0,0,.9,1.446l2.72,1.358a1.217,1.217,0,0,1,.6,1.4,23.129,23.129,0,0,1-1.1,2.632,1.225,1.225,0,0,1-1.418.567l-2.872-.958a1.773,1.773,0,0,0-1.656.391l-6.086,6.086a1.773,1.773,0,0,0-.391,1.656l.958,2.872a1.225,1.225,0,0,1-.567,1.418,23.129,23.129,0,0,1-2.632,1.1,1.217,1.217,0,0,1-1.4-.6l-1.358-2.72a1.768,1.768,0,0,0-1.446-.9H27.69a1.768,1.768,0,0,0-1.446.9l-1.358,2.72a1.213,1.213,0,0,1-1.4.6,23.515,23.515,0,0,1-2.632-1.093,1.221,1.221,0,0,1-.565-1.417l.964-2.874a1.766,1.766,0,0,0-.389-1.655l-6.086-6.086a1.771,1.771,0,0,0-1.656-.391l-2.882.958a1.224,1.224,0,0,1-1.418-.567A24.542,24.542,0,0,1,7.44,39.55l3.606-1.8A1.772,1.772,0,0,0,11.94,36.3V27.69a1.772,1.772,0,0,0-.894-1.447L8.334,24.887a1.225,1.225,0,0,1-.6-1.4,22.818,22.818,0,0,1,1.089-2.631,1.223,1.223,0,0,1,1.417-.566l2.884.966a1.769,1.769,0,0,0,1.655-.39l6.086-6.086a1.769,1.769,0,0,0,.39-1.655l-.966-2.884a1.223,1.223,0,0,1,.566-1.417,22.818,22.818,0,0,1,2.631-1.089,1.225,1.225,0,0,1,1.4.6l1.356,2.712a1.772,1.772,0,0,0,1.447.894H36.3a1.772,1.772,0,0,0,1.447-.894L39.1,8.334a1.229,1.229,0,0,1,1.4-.6,22.514,22.514,0,0,1,2.63,1.091,1.224,1.224,0,0,1,.567,1.418l-.958,2.882A1.771,1.771,0,0,0,43.137,14.777Z" fill-rule="evenodd" fill="url(#linear-gradient)"/>
      <path id="Path_635" data-name="Path 635" d="M32,46.24a14.237,14.237,0,1,1,10.07-4.17A14.26,14.26,0,0,1,32,46.24Zm0-5a9.218,9.218,0,1,1,6.54-2.7A9.257,9.257,0,0,1,32,41.24Z" fill-rule="evenodd" fill="url(#linear-gradient)"/>
    </g>
  </g>
</svg>
