<svg xmlns="http://www.w3.org/2000/svg" xmlns:xlink="http://www.w3.org/1999/xlink" width="66.99" height="81.883" viewBox="0 0 66.99 81.883">
  <defs>
    <linearGradient id="linear-gradient" x1="0.5" x2="0.5" y2="1" gradientUnits="objectBoundingBox">
      <stop offset="0" stop-color="#ea503d"/>
      <stop offset="1" stop-color="#f7a31c"/>
    </linearGradient>
  </defs>
  <path id="Path_605" data-name="Path 605" d="M309.661,680.722a2.482,2.482,0,0,1,.878,4.886h0a5.89,5.89,0,0,0-4.756,6.838h0a2.482,2.482,0,0,1-2,2.882h0l-.1.016a2.482,2.482,0,0,1-2.78-2.021,10.854,10.854,0,0,1,8.763-12.6h0Zm-2.289-9.006a20.126,20.126,0,0,0-16.248,23.366,2.482,2.482,0,0,0,2.779,2.02l.1-.016a2.482,2.482,0,0,0,2-2.882h0a15.161,15.161,0,0,1,12.241-17.6,2.482,2.482,0,0,0-.878-4.886Zm11.33,17.365-6.445.886a2.482,2.482,0,0,0,.676,4.917l6.445-.886a2.594,2.594,0,0,1,2.919,2.214l4.607,33.514a2.593,2.593,0,0,1-2.213,2.919l-47.275,6.5a2.593,2.593,0,0,1-2.92-2.213l-4.608-33.514A2.594,2.594,0,0,1,272.1,700.5l12.372-1.7h0l.1-.016c.026,0,.051-.012.077-.018s.078-.017.117-.027.086-.023.129-.038l.105-.036c.044-.017.088-.035.132-.054l.09-.042c.045-.022.089-.045.133-.07l.076-.045c.045-.028.089-.057.133-.088l.063-.045q.067-.051.13-.105l.052-.047c.042-.039.083-.079.123-.121l.044-.047q.059-.065.113-.135l.037-.047c.036-.048.07-.1.1-.148l.031-.049c.031-.052.06-.1.088-.159l.025-.049c.027-.056.051-.113.074-.171l.019-.048q.033-.09.059-.182c0-.015.009-.031.013-.047.017-.063.03-.128.042-.193,0-.014.005-.028.007-.042.011-.067.018-.135.023-.2,0-.013,0-.025,0-.038,0-.07,0-.14,0-.212v-.036c0-.072-.01-.143-.019-.215a.1.1,0,0,0,0-.023.1.1,0,0,1,0-.016c0-.028-.006-.057-.011-.085a24.767,24.767,0,0,1,19.975-28.724,2.482,2.482,0,1,0-.878-4.886,29.737,29.737,0,0,0-24.321,31.925l-9.93,1.365a7.563,7.563,0,0,0-6.456,8.513l4.606,33.515a7.563,7.563,0,0,0,8.513,6.455l47.275-6.5a7.563,7.563,0,0,0,6.456-8.513l-4.606-33.515a7.563,7.563,0,0,0-8.513-6.456Zm-35.471,33.89a2.068,2.068,0,0,0,.934,2.772h0c.221.11,5.532,2.669,15.667,1.277s14.559-5.292,14.742-5.456a2.068,2.068,0,0,0-2.757-3.084c-.037.032-3.8,3.24-12.548,4.442-8.685,1.194-13.176-.843-13.279-.891A2.069,2.069,0,0,0,283.232,722.972Zm27.521-14.228a3.613,3.613,0,1,0-3.088,4.071h0a3.613,3.613,0,0,0,3.088-4.071h0Zm-18.519,2.544a3.613,3.613,0,1,0-3.088,4.071h0A3.613,3.613,0,0,0,292.234,711.288Z" transform="translate(-264.901 -662.249)" fill="url(#linear-gradient)"/>
</svg>
