<svg xmlns="http://www.w3.org/2000/svg" xmlns:xlink="http://www.w3.org/1999/xlink" width="14.992" height="22.889" viewBox="0 0 14.992 22.889">
  <defs>
    <linearGradient id="linear-gradient" x1="0.845" y1="1" x2="1" y2="-0.478" gradientUnits="objectBoundingBox">
      <stop offset="0" stop-color="#f7a31c"/>
      <stop offset="1" stop-color="#ea503d"/>
    </linearGradient>
  </defs>
  <path id="Path_643" data-name="Path 643" d="M132.092,78.371a3.886,3.886,0,0,0-3.842-3.307h-.037a6.167,6.167,0,0,0-2.471.513c-1.239.534-3.585,1.236-5.365-.073a.676.676,0,0,0-.519-.127.7.7,0,0,0-.457.277.722.722,0,0,0-.115.249,4.855,4.855,0,0,0,.421,3.642,2.657,2.657,0,0,0-.321,2.193l1.06,3.665a1.9,1.9,0,0,0-.528,1.672l.221,1.293a1.746,1.746,0,0,0,1.257,1.374l.413,1.22a1.141,1.141,0,0,0-.109.488v4.019a2.492,2.492,0,0,0,2.485,2.484h1.6a2.519,2.519,0,0,0,1.793-.765l.65-.677a.852.852,0,0,1,.6-.254h.832a1.279,1.279,0,0,0,.04-2.557c-.025,0-.054,0-.074,0h-.953c.03-.015.059-.033.09-.05l1.257-.736a3.482,3.482,0,0,0,1.549-1.892l.432-1.272a1.751,1.751,0,0,0,1.257-1.377l.22-1.292a1.893,1.893,0,0,0-.544-1.687l1.054-3.647a2.681,2.681,0,0,0-.255-2.1A2.765,2.765,0,0,0,132.092,78.371Zm-9.311,13.081a.082.082,0,0,1,.164,0v1a.533.533,0,0,0,.568.514.54.54,0,0,0,.514-.522v-.991c0-.09.164-.09.164,0v.984a.54.54,0,0,0,.513.568.507.507,0,0,0,.391-.138.531.531,0,0,0,.177-.372.3.3,0,0,0,0-.051v-1.6c0-.091.163-.093.163,0v1.607a.545.545,0,0,0,.542.515h.027a.541.541,0,0,0,.514-.522V88.782c0-.089.164-.091.164,0v4.732a1.271,1.271,0,0,0,1.269,1.267h1.675a.195.195,0,0,1,0,.39h-.8a1.951,1.951,0,0,0-1.385.592l-.651.677a1.413,1.413,0,0,1-1.011.431h-1.6a1.405,1.405,0,0,1-1.4-1.4Zm4.994,1.126v-3.8a1.166,1.166,0,0,0-2.331,0v.9a1.175,1.175,0,0,0-1.116.625,1.175,1.175,0,0,0-.838.163,1.167,1.167,0,0,0-.433-.166l-.456-1.347a.8.8,0,0,0-.673-.537l-.1-.011a.348.348,0,0,1-.311-.276l-.221-1.291a.526.526,0,0,1,.174-.481l.344-.306a.7.7,0,0,0,.221-.657l1.279-2.872a.94.94,0,0,1,.287-.359,9.544,9.544,0,0,0,5.255-.15.978.978,0,0,1,1.2.509l1.3,2.908a.7.7,0,0,0,.226.621l.348.308a.52.52,0,0,1,.176.477l-.222,1.288a.347.347,0,0,1-.314.28l-.1.011a.8.8,0,0,0-.672.538l-.544,1.61a2.1,2.1,0,0,1-.934,1.134l-1.258.736A2.531,2.531,0,0,1,127.775,92.578Zm-7.07-11.843a6.631,6.631,0,0,0,1.264.86c.068.032.14.064.214.1a2.249,2.249,0,0,0-.139.262l-.693,1.551-.622-2.15A1.286,1.286,0,0,1,120.705,80.735Zm10.629,1.216a2.384,2.384,0,0,0-2.917-1.262,8.363,8.363,0,0,1-5.845-.354,3.292,3.292,0,0,1-2.058-3.147,7.485,7.485,0,0,0,5.78-.331,4.807,4.807,0,0,1,1.919-.4c.011,0,.027,0,.041,0a2.487,2.487,0,0,1,2.476,2.466.7.7,0,0,0,.531.678l.4.1a1.366,1.366,0,0,1,.863.645,1.276,1.276,0,0,1,.125,1.006l-.622,2.15Z" transform="translate(-119.107 -75.064)" fill="url(#linear-gradient)"/>
</svg>
