<svg xmlns="http://www.w3.org/2000/svg" xmlns:xlink="http://www.w3.org/1999/xlink" width="17.73" height="19.221" viewBox="0 0 17.73 19.221">
  <defs>
    <linearGradient id="linear-gradient" x1="0.845" y1="1" x2="1" y2="-0.478" gradientUnits="objectBoundingBox">
      <stop offset="0" stop-color="#f7a31c"/>
      <stop offset="1" stop-color="#ea503d"/>
    </linearGradient>
  </defs>
  <g id="Group_610" data-name="Group 610" transform="translate(-119.973 37.527)">
    <path id="Path_650" data-name="Path 650" d="M135.257-37.526h-.046a2.5,2.5,0,0,0-2.489,2.491l0,5.482a21.641,21.641,0,0,1-1.746,2.006.263.263,0,0,1-.187.081h0l-5.752-.067H125a3.676,3.676,0,0,0-3.445,2.408l-1.386,3.774a3.046,3.046,0,0,0,.248,2.653.85.85,0,0,0,.711.394h1.356l-.328-.471a2.417,2.417,0,0,1-.364-1.977l1.385-3.774a1.983,1.983,0,0,1,1.842-1.274l5.757.067h.011a2.009,2.009,0,0,0,1.452-.625c2.21-2.345,2.21-2.636,2.21-2.971l.006-5.7a.772.772,0,0,1,.816-.759h0a.811.811,0,0,1,.7.829v5.749a2.485,2.485,0,0,1-.545,1.564l-4.232,4.095a.887.887,0,0,0-.269.639v3.745a.865.865,0,0,0,.865.865.866.866,0,0,0,.866-.865v-3.384l4.035-3.905a4.236,4.236,0,0,0,1.012-2.755v-5.667A2.58,2.58,0,0,0,135.257-37.526Z" fill="url(#linear-gradient)"/>
    <path id="Path_651" data-name="Path 651" d="M127.415-28.725h0A3.7,3.7,0,0,0,131.1-32.42a3.694,3.694,0,0,0-3.69-3.684h-.006a3.693,3.693,0,0,0-3.684,3.689A3.7,3.7,0,0,0,127.415-28.725Zm1.961-3.69a1.962,1.962,0,0,1-1.96,1.96,1.962,1.962,0,0,1-1.959-1.96,1.963,1.963,0,0,1,1.959-1.959A1.962,1.962,0,0,1,129.376-32.415Z" fill="url(#linear-gradient)"/>
  </g>
</svg>
