<svg id="Group_473" data-name="Group 473" xmlns="http://www.w3.org/2000/svg" width="343.777" height="125.164" viewBox="0 0 343.777 125.164">
  <path id="Path_599" data-name="Path 599" d="M668.21,844.24a19.493,19.493,0,0,0-5.906-1.165,5.463,5.463,0,0,0-2.967.693,2.266,2.266,0,0,0-1.082,2.076,3.044,3.044,0,0,0,1.156,2.271,7.382,7.382,0,0,0,2.116,1.2q1.385.527,4.1,1.36a53.3,53.3,0,0,1,6.683,2.329,11.7,11.7,0,0,1,4.52,3.577,9.935,9.935,0,0,1,1.885,6.294,10.757,10.757,0,0,1-2.052,6.628,12.442,12.442,0,0,1-5.63,4.131,21.875,21.875,0,0,1-7.958,1.387,28.779,28.779,0,0,1-9.623-1.691,28.488,28.488,0,0,1-4.914-2.255,4.379,4.379,0,0,1-1.712-5.727h0a4.357,4.357,0,0,1,5.833-1.983q.117.057.23.122a27.03,27.03,0,0,0,3.17,1.554,19,19,0,0,0,7.127,1.663,6.61,6.61,0,0,0,3.577-.832,2.713,2.713,0,0,0,1.3-2.44,2.884,2.884,0,0,0-.97-2.219,7.161,7.161,0,0,0-2.44-1.414q-1.471-.525-4.132-1.248a51,51,0,0,1-6.6-2.246,11.668,11.668,0,0,1-4.464-3.439,9.449,9.449,0,0,1-1.858-6.128,10.7,10.7,0,0,1,1.913-6.322,12.175,12.175,0,0,1,5.435-4.188,21.112,21.112,0,0,1,8.18-1.475,29.7,29.7,0,0,1,8.318,1.192,31.563,31.563,0,0,1,3.156,1.1,4.361,4.361,0,0,1,2.343,5.7q-.042.1-.088.2l-.109.232a4.351,4.351,0,0,1-5.633,2.169Q669.7,844.733,668.21,844.24Z" transform="translate(-522.679 -778.816)" fill="#5117bc"/>
  <path id="Path_600" data-name="Path 600" d="M790.1,840.737q4.1,3.577,4.1,10.066,0,6.878-4.1,10.676t-11.535,3.8h-6.933v5.684a5.075,5.075,0,0,1-5.075,5.075h0a5.075,5.075,0,0,1-5.074-5.075V842.234a5.075,5.075,0,0,1,5.074-5.074h12.007Q786,837.16,790.1,840.737Zm-7.237,14.889a5.8,5.8,0,0,0,1.691-4.492,5.562,5.562,0,0,0-1.691-4.354,6.908,6.908,0,0,0-4.8-1.525h-6.435v11.924h6.433a6.837,6.837,0,0,0,4.8-1.552Z" transform="translate(-600.465 -780.444)" fill="#5117bc"/>
  <path id="Path_601" data-name="Path 601" d="M886.107,837.16h0a5.075,5.075,0,0,1,5.075,5.074h0v28.728a5.075,5.075,0,0,1-5.075,5.075h0a5.075,5.075,0,0,1-5.075-5.075V842.234a5.074,5.074,0,0,1,5.075-5.074Z" transform="translate(-681.247 -780.444)" fill="#5117bc"/>
  <path id="Path_602" data-name="Path 602" d="M937.7,837.16h1.5a4.326,4.326,0,0,1,4.326,4.326v25.9h12.145A4.326,4.326,0,0,1,960,871.711h0a4.326,4.326,0,0,1-4.326,4.326H937.7a4.326,4.326,0,0,1-4.326-4.325h0V841.486A4.326,4.326,0,0,1,937.7,837.16Z" transform="translate(-716.619 -780.444)" fill="#5117bc"/>
  <path id="Path_603" data-name="Path 603" d="M1111.892,837.883a19.327,19.327,0,0,1,10.287,17.359,19.673,19.673,0,0,1-10.287,17.58,23.069,23.069,0,0,1-21.463.028,19.514,19.514,0,0,1-7.542-7.266,19.9,19.9,0,0,1-2.745-10.344,19.332,19.332,0,0,1,10.287-17.359,23.4,23.4,0,0,1,21.463,0Zm-15.972,7.487a10.785,10.785,0,0,0-3.91,4.131,12.376,12.376,0,0,0,.028,11.647,11.285,11.285,0,0,0,3.91,4.16,9.848,9.848,0,0,0,5.324,1.525,9.714,9.714,0,0,0,5.3-1.525,10.732,10.732,0,0,0,3.8-4.16,12.926,12.926,0,0,0,0-11.647,10.528,10.528,0,0,0-3.8-4.131,9.847,9.847,0,0,0-5.3-1.5A10.126,10.126,0,0,0,1095.919,845.37Z" transform="translate(-815.792 -779.17)" fill="#5117bc"/>
  <path id="Path_604" data-name="Path 604" d="M1252.805,840.737q4.1,3.577,4.1,10.066,0,6.878-4.1,10.676t-11.535,3.8h-6.933v5.684a5.075,5.075,0,0,1-5.075,5.075h0a5.075,5.075,0,0,1-5.075-5.075V842.234a5.075,5.075,0,0,1,5.075-5.074h12.008Q1248.7,837.16,1252.805,840.737Zm-7.238,14.889a5.8,5.8,0,0,0,1.692-4.492,5.562,5.562,0,0,0-1.692-4.354,6.909,6.909,0,0,0-4.8-1.525h-6.434v11.924h6.433a6.839,6.839,0,0,0,4.8-1.552Z" transform="translate(-913.131 -780.444)" fill="#5117bc"/>
  <path id="Path_605" data-name="Path 605" d="M333.32,690.487a3.794,3.794,0,1,1,1.342,7.469h0a9,9,0,0,0-7.269,10.453h0a3.794,3.794,0,0,1-3.063,4.405h0l-.157.025a3.794,3.794,0,0,1-4.249-3.089,16.592,16.592,0,0,1,13.4-19.265h0Zm-3.5-13.766a30.763,30.763,0,0,0-24.837,35.717,3.794,3.794,0,0,0,4.248,3.088c.052-.007.105-.015.157-.024a3.794,3.794,0,0,0,3.063-4.4h0a23.174,23.174,0,0,1,18.711-26.906,3.794,3.794,0,0,0-1.342-7.469Zm17.319,26.544-9.851,1.354a3.794,3.794,0,0,0,1.033,7.516l9.852-1.354a3.965,3.965,0,0,1,4.462,3.385l7.042,51.229a3.964,3.964,0,0,1-3.383,4.462l-72.263,9.932a3.964,3.964,0,0,1-4.463-3.383l-7.043-51.229a3.965,3.965,0,0,1,3.384-4.463l18.912-2.6h0c.052-.007.105-.015.157-.024s.078-.019.117-.027c.06-.013.12-.026.179-.042s.132-.036.2-.058.107-.036.161-.055.135-.053.2-.082c.046-.021.092-.042.138-.064.069-.033.136-.069.2-.107.04-.022.078-.044.116-.068.069-.042.137-.088.2-.134l.1-.069q.1-.077.2-.161l.079-.072c.065-.06.126-.121.187-.185l.067-.072q.089-.1.173-.206l.056-.072c.054-.074.108-.149.154-.226.017-.025.032-.05.047-.075.048-.079.092-.161.135-.244l.038-.075c.041-.086.078-.172.113-.261.01-.025.019-.049.029-.074q.05-.137.089-.278c.007-.023.014-.047.02-.072.026-.1.046-.2.064-.3,0-.021.008-.042.011-.065.016-.1.028-.206.036-.312,0-.019,0-.039,0-.059.007-.107.007-.215,0-.324V714.2c0-.11-.015-.219-.029-.328a.149.149,0,0,0,0-.036.158.158,0,0,1,0-.025c-.007-.043-.009-.087-.017-.13a37.857,37.857,0,0,1,30.533-43.906,3.794,3.794,0,1,0-1.342-7.468,45.455,45.455,0,0,0-37.177,48.8l-15.179,2.086a11.56,11.56,0,0,0-9.868,13.013l7.041,51.229a11.56,11.56,0,0,0,13.013,9.867l72.263-9.932a11.561,11.561,0,0,0,9.868-13.012l-7.04-51.23a11.561,11.561,0,0,0-13.013-9.868Zm-54.219,51.8a3.161,3.161,0,0,0,1.428,4.237h0c.338.168,8.457,4.08,23.948,1.951s22.254-8.089,22.534-8.339a3.162,3.162,0,0,0-4.214-4.714c-.056.049-5.815,4.953-19.181,6.79-13.276,1.825-20.14-1.289-20.3-1.362A3.163,3.163,0,0,0,292.921,755.068Zm42.067-21.748a5.523,5.523,0,1,0-4.72,6.223h0a5.523,5.523,0,0,0,4.72-6.223h0Zm-28.308,3.888a5.523,5.523,0,1,0-4.72,6.223h0A5.523,5.523,0,0,0,306.68,737.208Z" transform="translate(-264.901 -662.249)" fill="#f7a31c"/>
  <path id="Path_606" data-name="Path 606" d="M890.145,789.782a5.979,5.979,0,1,0-5.109,6.738A5.979,5.979,0,0,0,890.145,789.782Z" transform="translate(-679.362 -744.938)" fill="#5117bc"/>
</svg>
